# Blender 4.3.0
# www.blender.org
o Triangle_Piece
v 1.000000 1.000000 0.100000
v 1.000000 1.000000 -0.100000
v 1.000000 -1.000000 0.100000
v 1.000000 -1.000000 -0.100000
v -1.000000 -1.000000 0.100000
v -1.000000 -1.000000 -0.100000
vn -0.0000 -1.0000 -0.0000
vn 1.0000 -0.0000 -0.0000
vn -0.7071 0.7071 -0.0000
vn -0.0000 -0.0000 -1.0000
vn -0.0000 -0.0000 1.0000
s 1
f 3//1 6//1 4//1
f 1//2 4//2 2//2
f 3//1 5//1 6//1
f 2//3 6//3 5//3
f 2//4 4//4 6//4
f 1//2 3//2 4//2
f 2//3 5//3 1//3
f 5//5 3//5 1//5
